# xmcd
#
# Track frame offsets:
#	150
#	18031
#	31085
#	52729
#	68082
#	79396
#	99888
#	120304
#	135938
#	154591
#	170887
#	194997
#	209413
#
# Disc length: 3005 seconds
# Revision: 2
# Processed by: cddbd v1.5.2PL0 Copyright (c) Steve Scherf et al.
# Submitted via: dBpowerAMP V12.0
#
DISCID=a10bbb0d
DTITLE=John-Alex Mason - Time Will Come
DYEAR=2004
DGENRE=Blues
TTITLE0=Going Out the Country
TTITLE1=2004 Highway Blues
TTITLE2=Wildflower
TTITLE3=Pea Vine Blues
TTITLE4=Time Will Come
TTITLE5=Rescue
TTITLE6=Honest Like That
TTITLE7=Biscuits and Blue Sky
TTITLE8=The All New! Miss Brown Blues
TTITLE9=No Wasting Time (Again My Friends)
TTITLE10=Music for Money
TTITLE11=Everybody Ought to Treat a Stranger Right
TTITLE12=Spiritual #1
EXTD=
EXTT0=
EXTT1=
EXTT2=
EXTT3=
EXTT4=
EXTT5=
EXTT6=
EXTT7=
EXTT8=
EXTT9=
EXTT10=
EXTT11=
EXTT12=
PLAYORDER=
